<?xml version="1.0" encoding="utf-8"?>
<!-- Generator: Adobe Illustrator 19.2.1, SVG Export Plug-In . SVG Version: 6.00 Build 0)  -->
<svg version="1.1" id="Слой_1" xmlns="http://www.w3.org/2000/svg" xmlns:xlink="http://www.w3.org/1999/xlink" x="0px" y="0px"
	 viewBox="0 0 500 500" style="enable-background:new 0 0 500 500;" xml:space="preserve">
<style type="text/css">
	.st0{fill-rule:evenodd;clip-rule:evenodd;fill:#00718B;}
	.st1{fill-rule:evenodd;clip-rule:evenodd;fill:#0196C0;}
	.st2{fill-rule:evenodd;clip-rule:evenodd;fill:#00D1F4;}
</style>
<path class="st0" d="M250,322.1l-140.3-96.9L125,394.3L250,322.1"/>
<path class="st0" d="M250,322.1l125,72.3l11.3-169.2L250,322.1"/>
<polygon class="st1" points="500,177.5 375,249.3 375,249.3 375,249.3 375,394.3 499.9,322.3 500,322.3 500,322.3 "/>
<polygon class="st1" points="0,177.5 125,249.3 125,249.3 125,249.3 125,394.3 0,322.3 0,322.3 0,322.3 "/>
<polygon class="st2" points="375,105.7 250,177.5 125,105.7 0,177.5 250,322.5 500,177.5 "/>
</svg>
